# xmcd
#
# Track frame offsets: 
#        150
#        16038
#        32968
#        49982
#        65247
#        84518
#        101648
#        117473
#        132595
#        149805
#        164746
#
# Disc length: 2375 seconds
#
# Revision: 0
# Processed by: cddbd v1.5.1PL2 Copyright (c) Steve Scherf et al.
# Submitted via: ExactAudioCopy v0.95b1
#
DISCID=ac09450b
DTITLE=The Mamasitas - The Mamasitas
DYEAR=2006
DGENRE=Country
TTITLE0=I'll Be Back
TTITLE1=Friend
TTITLE2=Living Proof
TTITLE3=Real Life Dream
TTITLE4=Seatlle
TTITLE5=Thinking Like A Woman
TTITLE6=Lady Leaving
TTITLE7=Ain't That Into You
TTITLE8=From Here To Forget
TTITLE9=Shake It
TTITLE10=The World Is Ending
EXTD=
EXTT0=
EXTT1=
EXTT2=
EXTT3=
EXTT4=
EXTT5=
EXTT6=
EXTT7=
EXTT8=
EXTT9=
EXTT10=
PLAYORDER=
